<svg width="132" height="40" viewBox="0 0 132 40" fill="none" xmlns="http://www.w3.org/2000/svg">
<path d="M7.5 32C6.25 32 5.1875 31.5625 4.3125 30.6875C3.4375 29.8125 3 28.75 3 27.5H0V11C0 10.175 0.29375 9.46875 0.88125 8.88125C1.46875 8.29375 2.175 8 3 8H24V14H28.5L33 20V27.5H30C30 28.75 29.5625 29.8125 28.6875 30.6875C27.8125 31.5625 26.75 32 25.5 32C24.25 32 23.1875 31.5625 22.3125 30.6875C21.4375 29.8125 21 28.75 21 27.5H12C12 28.75 11.5625 29.8125 10.6875 30.6875C9.8125 31.5625 8.75 32 7.5 32ZM7.5 29C7.925 29 8.28125 28.8563 8.56875 28.5688C8.85625 28.2812 9 27.925 9 27.5C9 27.075 8.85625 26.7188 8.56875 26.4312C8.28125 26.1437 7.925 26 7.5 26C7.075 26 6.71875 26.1437 6.43125 26.4312C6.14375 26.7188 6 27.075 6 27.5C6 27.925 6.14375 28.2812 6.43125 28.5688C6.71875 28.8563 7.075 29 7.5 29ZM3 24.5H4.2C4.625 24.05 5.1125 23.6875 5.6625 23.4125C6.2125 23.1375 6.825 23 7.5 23C8.175 23 8.7875 23.1375 9.3375 23.4125C9.8875 23.6875 10.375 24.05 10.8 24.5H21V11H3V24.5ZM25.5 29C25.925 29 26.2812 28.8563 26.5688 28.5688C26.8563 28.2812 27 27.925 27 27.5C27 27.075 26.8563 26.7188 26.5688 26.4312C26.2812 26.1437 25.925 26 25.5 26C25.075 26 24.7188 26.1437 24.4312 26.4312C24.1437 26.7188 24 27.075 24 27.5C24 27.925 24.1437 28.2812 24.4312 28.5688C24.7188 28.8563 25.075 29 25.5 29ZM24 21.5H30.375L27 17H24V21.5Z" fill="#003D9B"/>
<path d="M42.624 34V8.08H47.592L58.86 25.36V8.08H63.828V34H58.86L47.592 16.72V34H42.624ZM67.068 34V8.08H83.988V12.652H71.964V18.196H81.828V22.768H71.964V29.428H83.988V34H67.068ZM86.508 34V8.08H91.404V20.032L101.268 8.08H107.244L96.408 20.86L107.928 34H101.736L91.404 22.192V34H86.508ZM118.332 34.54C115.74 34.54 113.505 33.976 111.627 32.848C109.749 31.72 108.303 30.142 107.289 28.114C106.275 26.086 105.768 23.728 105.768 21.04C105.768 18.352 106.275 15.994 107.289 13.966C108.303 11.938 109.749 10.36 111.627 9.232C113.505 8.104 115.74 7.54 118.332 7.54C120.924 7.54 123.159 8.104 125.037 9.232C126.915 10.36 128.361 11.938 129.375 13.966C130.389 15.994 130.896 18.352 130.896 21.04C130.896 23.728 130.389 26.086 129.375 28.114C128.361 30.142 126.915 31.72 125.037 32.848C123.159 33.976 120.924 34.54 118.332 34.54ZM118.332 29.932C119.976 29.956 121.344 29.602 122.436 28.87C123.528 28.138 124.347 27.1 124.893 25.756C125.439 24.412 125.712 22.84 125.712 21.04C125.712 19.24 125.439 17.68 124.893 16.36C124.347 15.04 123.528 14.014 122.436 13.282C121.344 12.55 119.976 12.172 118.332 12.148C116.688 12.124 115.32 12.478 114.228 13.21C113.136 13.942 112.317 14.98 111.771 16.324C111.225 17.668 110.952 19.24 110.952 21.04C110.952 22.84 111.225 24.4 111.771 25.72C112.317 27.04 113.136 28.066 114.228 28.798C115.32 29.53 116.688 29.908 118.332 29.932Z" fill="#003D9B"/>
</svg>
